<?xml version="1.0" encoding="UTF-8" standalone="no"?>
<!-- Created with Inkscape (http://www.inkscape.org/) -->

<svg
   xmlns:dc="http://purl.org/dc/elements/1.1/"
   xmlns:cc="http://creativecommons.org/ns#"
   xmlns:rdf="http://www.w3.org/1999/02/22-rdf-syntax-ns#"
   xmlns:svg="http://www.w3.org/2000/svg"
   xmlns="http://www.w3.org/2000/svg"
   xmlns:sodipodi="http://sodipodi.sourceforge.net/DTD/sodipodi-0.dtd"
   xmlns:inkscape="http://www.inkscape.org/namespaces/inkscape"
   version="1.1"
   id="svg10"
   width="1280"
   height="720"
   viewBox="0 0 1280 720"
   sodipodi:docname="logo.svg"
   inkscape:version="0.92.3 (2405546, 2018-03-11)">
  <metadata
     id="metadata16">
    <rdf:RDF>
      <cc:Work
         rdf:about="">
        <dc:format>image/svg+xml</dc:format>
        <dc:type
           rdf:resource="http://purl.org/dc/dcmitype/StillImage" />
        <dc:title></dc:title>
      </cc:Work>
    </rdf:RDF>
  </metadata>
  <defs
     id="defs14" />
  <sodipodi:namedview
     pagecolor="#ffffff"
     bordercolor="#666666"
     borderopacity="1"
     objecttolerance="10"
     gridtolerance="10"
     guidetolerance="10"
     inkscape:pageopacity="0"
     inkscape:pageshadow="2"
     inkscape:window-width="1920"
     inkscape:window-height="1177"
     id="namedview12"
     showgrid="false"
     inkscape:zoom="1.3789062"
     inkscape:cx="640"
     inkscape:cy="360"
     inkscape:window-x="-8"
     inkscape:window-y="-8"
     inkscape:window-maximized="1"
     inkscape:current-layer="svg10" />
  <path
     style="fill:#000000;stroke-width:1.33333337"
     d="M 637.84495,687.16855 C 607.99892,662.37281 542.25856,597.7546 513.89397,565.33333 421.08839,459.25477 364.95919,360.21957 348.51267,273.53211 345.95737,260.06352 344.88629,249.26859 344.3918,232 l -0.66816,-23.33333 6.47151,-3.91546 c 31.01657,-18.76592 41.24081,-25.17192 41.91405,-26.26122 0.43137,-0.69799 0.32564,-4.09376 -0.23497,-7.54619 -0.5606,-3.45243 -1.42928,-14.67713 -1.93039,-24.9438 l -0.91111,-18.66667 17.81698,-10.61783 c 47.58157,-28.355736 104.06493,-53.594347 166.87744,-74.566288 46.2406,-15.438888 54.80254,-17.41514 75.60618,-17.451277 21.30391,-0.03701 30.46783,2.019108 73.53835,16.499845 68.72163,23.104887 126.18632,49.158683 174.96168,79.32549 l 13.16668,8.1434 -1.02407,20.66666 c -1.70202,34.3486 -2.18028,30.77179 4.6907,35.08147 3.3,2.06987 13.8,8.68656 23.33333,14.70377 l 17.33333,10.94038 -0.10346,19.97053 c -0.14835,28.63529 -3.63939,49.85285 -13.48702,81.97052 -26.35214,85.94648 -97.82248,194.04619 -191.36765,289.44577 -36.67947,37.40659 -85.51812,82.89828 -99.54504,92.72312 -2.19443,1.53703 -3.66,0.74695 -12.98521,-7.00034 z m 63.48896,-106.68712 c 47.06705,-47.66263 72.56712,-76.68284 102.93806,-117.1481 52.91658,-70.50428 86.37684,-136.70013 97.71402,-193.31165 1.7647,-8.81192 3.61005,-19.70784 4.10078,-24.21315 l 0.89224,-8.19146 -14.4895,-8.5684 c -7.96923,-4.71262 -19.28951,-11.1179 -25.15618,-14.23395 -17.16854,-9.11899 -16.07192,-7.2818 -12.762,-21.38019 4.6512,-19.81158 6.8248,-36.50078 4.99439,-38.34768 -2.87311,-2.89897 -53.28083,-28.11375 -75.27261,-37.6526 C 745.87729,100.77153 690.89328,81.389771 662.84792,74.625045 l -12.48541,-3.011564 -14.84792,3.650966 C 580.30244,88.840603 499.47812,120.98026 447.13235,150.17433 l -8.201,4.57383 0.62793,5.62592 c 0.62845,5.6306 6.45436,36.46372 7.89493,41.78327 0.80174,2.96053 0.87004,2.91374 -24.12088,16.51714 -14.48585,7.88514 -26.63189,15.00132 -28.80869,16.8786 -1.17812,1.016 -1.9472,3.1822 -1.70908,4.81376 4.65232,31.8763 8.1144,46.98748 15.80072,68.96648 24.47457,69.98492 73.54357,146.32002 146.34652,227.6667 10.33691,11.54998 35.49283,37.71469 55.90207,58.14378 l 37.10769,37.14382 7.68039,-6.66239 c 4.22421,-3.66431 24.78064,-23.97901 45.68096,-45.14381 z m -69.60938,-18.25766 c -16.11833,-14.85802 -56.91384,-56.70254 -80.81242,-82.89044 -13.23079,-14.49818 -13.13376,-14.242 -10.85794,-28.66666 2.3845,-15.11335 10.03864,-35.04282 17.53883,-45.66667 3.00309,-4.25381 2.50952,-4.47255 -3.32588,-1.47396 -12.52187,6.43451 -30.14208,20.60829 -33.65404,27.07147 -3.96336,7.29393 -4.34008,7.60642 -6.22709,5.1656 -0.94563,-1.22315 -4.33108,-5.55571 -7.52324,-9.62791 l -5.80391,-7.40399 4.82929,-6.57882 c 7.97498,-10.86408 19.93691,-20.94186 31.79196,-26.78431 6.04262,-2.97795 24.48658,-9.92761 40.98658,-15.44369 33.93696,-11.34542 45.86158,-17.3681 56.47918,-28.52555 8.80946,-9.25737 13.46454,-17.15505 16.11815,-27.34564 2.25209,-8.64864 2.8954,-30.10375 0.83913,-27.98653 -0.6766,0.69666 -4.31986,9.06666 -8.09614,18.6 -3.77627,9.53333 -7.57268,17.99134 -8.43647,18.79557 -0.86379,0.80424 -11.17052,4.00867 -22.90385,7.12095 -33.13308,8.78858 -38.02692,10.75896 -69.45314,27.9635 -16.1948,8.86599 -30.02105,16.11998 -30.725,16.11998 -0.70394,0 -2.78377,-4.65 -4.62182,-10.33334 L 504.52476,354 492.26884,347.33333 c -6.74076,-3.66666 -12.25883,-7.29125 -12.26239,-8.05464 -0.007,-1.43946 11.14634,-23.70186 32.89844,-65.66805 9.92027,-19.13911 13.12095,-24.24899 14.86835,-23.73731 1.22472,0.35863 7.02676,1.03306 12.89343,1.49874 l 10.66666,0.84666 6.1919,-12.25528 6.19189,-12.25529 -11.13343,0.92741 c -6.12338,0.51007 -11.71364,0.56882 -12.42277,0.13054 -1.77065,-1.09432 4.46928,-12.25255 10.37409,-18.55092 2.63908,-2.81498 8.715,-7.10538 13.50207,-9.53424 35.9922,-18.26172 82.94353,-20.46147 122.04391,-5.71795 40.1556,15.1414 71.34446,48.35416 83.82186,89.26116 5.06939,16.61989 7.42658,31.80777 7.42866,47.86428 0.003,18.67399 -1.68027,26.87292 -8.03582,39.15471 -5.65737,10.93261 -6.56565,17.01704 -3.24745,21.75442 2.53368,3.61735 8.41001,5.29651 24.2368,6.92566 12.11043,1.2466 18.27376,3.15536 17.46265,5.4081 -1.70882,4.74595 -45.81569,58.16823 -67.70306,82.00199 -23.83064,25.94985 -88.45154,90 -90.80199,90 -0.6198,0 -8.50295,-6.79931 -17.51811,-15.10956 z M 779.68579,344.33333 C 779.36528,340.85 778.97572,330.2 778.82011,320.66667 c -0.62119,-38.05514 -8.06008,-66.3239 -23.50231,-89.31178 -20.20987,-30.08514 -47.58889,-47.99669 -85.98447,-56.2516 -8.89382,-1.91214 -17.21684,-2.43662 -38.66666,-2.43662 -30.39612,0 -42.1273,1.72054 -59.76742,8.76572 -5.37208,2.14552 -10.2364,3.90094 -10.8096,3.90094 -1.223,0 -14.75632,-31.22482 -14.75632,-34.04658 0,-2.31735 8.23007,-7.67382 20,-13.01683 L 574,134.33565 l 7.19493,3.83218 c 5.33454,2.84128 7.35208,3.38192 7.80267,2.09085 1.27871,-3.66388 9.26959,-12.99416 12.39664,-14.47453 1.79984,-0.85205 8.01177,-2.33406 13.80432,-3.29336 l 10.53189,-1.74419 7.46811,8.23838 7.46811,8.23838 9.25201,-7.94501 c 8.42621,-7.23587 9.80472,-7.94502 15.44429,-7.94502 3.40575,0 9.54315,0.67295 13.63866,1.49545 7.39217,1.48456 7.47182,1.55217 10.94364,9.28839 1.92349,4.28611 3.92269,8.04911 4.44266,8.36222 0.51998,0.3131 4.91814,-1.21223 9.7737,-3.3896 l 8.82828,-3.95889 10.69236,5.37601 10.69234,5.37601 1.64376,11.57987 1.64376,11.57985 11.60407,-0.82368 11.60407,-0.82368 4.32217,4.45936 4.32219,4.45936 -1.5096,8.32495 c -0.83028,4.57873 -1.21879,9.0828 -0.86336,10.00904 0.35544,0.92625 3.47068,2.10764 6.92276,2.6253 9.14809,1.37186 9.74153,1.76576 13.33076,8.84878 3.95794,7.81061 4.03429,9.90564 0.63409,17.399 -1.45056,3.19674 -2.65056,6.7248 -2.66667,7.84012 -0.0161,1.1153 2.73242,3.5153 6.1078,5.33333 3.3754,1.81801 6.69458,4.74496 7.37594,6.50432 0.68136,1.75935 1.6046,9.59144 2.05164,17.40464 l 0.8128,14.2058 -5.07015,4.7834 -5.07015,4.7834 4.21475,2.17953 c 3.20324,1.65646 4.21476,3.07252 4.21476,5.90042 0,5.41346 -2.44269,18.16322 -5.53253,28.8773 -2.90818,10.08414 -11.92188,31.24344 -13.33322,31.29916 -0.47614,0.0188 -1.12797,-2.81582 -1.44846,-6.29916 z"
     id="path3725"
     inkscape:connector-curvature="0" />
</svg>
